HIERARCHY
ROOT Hip
{
  OFFSET 0.000000 0.000000 0.000000
  CHANNELS 6 Xposition Yposition Zposition Zrotation Xrotation Yrotation
  JOINT RHip
  {
    OFFSET 0.000000 0.000000 0.000000
    CHANNELS 3 Xposition Yposition Zposition
    End Site
    {
      OFFSET 0.000000 0.100000 0.000000
    }
  }
  JOINT RKnee
  {
    OFFSET 0.000000 0.000000 0.000000
    CHANNELS 3 Xposition Yposition Zposition
    End Site
    {
      OFFSET 0.000000 0.100000 0.000000
    }
  }
  JOINT RFoot
  {
    OFFSET 0.000000 0.000000 0.000000
    CHANNELS 3 Xposition Yposition Zposition
    End Site
    {
      OFFSET 0.000000 0.100000 0.000000
    }
  }
  JOINT LHip
  {
    OFFSET 0.000000 0.000000 0.000000
    CHANNELS 3 Xposition Yposition Zposition
    End Site
    {
      OFFSET 0.000000 0.100000 0.000000
    }
  }
  JOINT LKnee
  {
    OFFSET 0.000000 0.000000 0.000000
    CHANNELS 3 Xposition Yposition Zposition
    End Site
    {
      OFFSET 0.000000 0.100000 0.000000
    }
  }
  JOINT LFoot
  {
    OFFSET 0.000000 0.000000 0.000000
    CHANNELS 3 Xposition Yposition Zposition
    End Site
    {
      OFFSET 0.000000 0.100000 0.000000
    }
  }
  JOINT Spine
  {
    OFFSET 0.000000 0.000000 0.000000
    CHANNELS 3 Xposition Yposition Zposition
    End Site
    {
      OFFSET 0.000000 0.100000 0.000000
    }
  }
  JOINT Thorax
  {
    OFFSET 0.000000 0.000000 0.000000
    CHANNELS 3 Xposition Yposition Zposition
    End Site
    {
      OFFSET 0.000000 0.100000 0.000000
    }
  }
  JOINT Nose
  {
    OFFSET 0.000000 0.000000 0.000000
    CHANNELS 3 Xposition Yposition Zposition
    End Site
    {
      OFFSET 0.000000 0.100000 0.000000
    }
  }
  JOINT Head
  {
    OFFSET 0.000000 0.000000 0.000000
    CHANNELS 3 Xposition Yposition Zposition
    End Site
    {
      OFFSET 0.000000 0.100000 0.000000
    }
  }
  JOINT LShoulder
  {
    OFFSET 0.000000 0.000000 0.000000
    CHANNELS 3 Xposition Yposition Zposition
    End Site
    {
      OFFSET 0.000000 0.100000 0.000000
    }
  }
  JOINT LElbow
  {
    OFFSET 0.000000 0.000000 0.000000
    CHANNELS 3 Xposition Yposition Zposition
    End Site
    {
      OFFSET 0.000000 0.100000 0.000000
    }
  }
  JOINT LWrist
  {
    OFFSET 0.000000 0.000000 0.000000
    CHANNELS 3 Xposition Yposition Zposition
    End Site
    {
      OFFSET 0.000000 0.100000 0.000000
    }
  }
  JOINT RShoulder
  {
    OFFSET 0.000000 0.000000 0.000000
    CHANNELS 3 Xposition Yposition Zposition
    End Site
    {
      OFFSET 0.000000 0.100000 0.000000
    }
  }
  JOINT RElbow
  {
    OFFSET 0.000000 0.000000 0.000000
    CHANNELS 3 Xposition Yposition Zposition
    End Site
    {
      OFFSET 0.000000 0.100000 0.000000
    }
  }
  JOINT RWrist
  {
    OFFSET 0.000000 0.000000 0.000000
    CHANNELS 3 Xposition Yposition Zposition
    End Site
    {
      OFFSET 0.000000 0.100000 0.000000
    }
  }
}
MOTION
Frames: 17
Frame Time: 0.033333
0.000002 1.055815 0.000073 0.000000 0.000000 0.000000 -0.089320 0.019097 0.012523 0.259083 -0.043649 -0.106886 0.216343 -0.236309 0.189617 0.089309 -0.019161 -0.012633 -0.011873 0.369270 -0.020432 0.401923 -0.224919 0.318876 0.079811 -0.167218 -0.150032 0.126082 -0.228781 -0.195773 0.245955 -0.098804 -0.302698 0.058848 -0.153848 -0.334767 0.251760 -0.344627 -0.190404 0.322628 -0.188556 -0.323897 -0.352333 -0.165067 -0.288155 0.002461 -0.180749 -0.213313 -0.162111 -0.043076 -0.228902 0.302201 -0.044608 -0.309903
0.000003 1.055816 0.000049 0.000000 0.000000 0.000000 -0.094130 0.023013 0.029838 0.196825 -0.058606 -0.121175 0.234318 -0.230290 0.192862 0.094114 -0.023074 -0.029905 -0.044349 0.282699 -0.059793 0.272312 -0.172354 0.278443 0.002075 -0.163268 -0.154249 0.011808 -0.237950 -0.183808 0.146557 -0.092398 -0.271437 0.114108 -0.122112 -0.314242 0.127248 -0.330252 -0.195661 0.344878 -0.227644 -0.349003 -0.269305 -0.120621 -0.261870 -0.091819 -0.243958 -0.195632 -0.214590 -0.098878 -0.242121 0.402914 -0.087623 -0.324593
0.000003 1.055818 0.000035 0.000000 0.000000 0.000000 -0.097133 0.022670 0.050132 0.081955 -0.031691 -0.116836 0.295699 -0.185328 0.220471 0.097111 -0.022731 -0.050174 -0.139119 0.117410 -0.109788 -0.023131 -0.040257 0.189675 -0.103133 -0.132363 -0.148960 -0.152535 -0.197736 -0.164149 -0.014921 -0.079630 -0.223539 0.218542 -0.057427 -0.227504 -0.053888 -0.250261 -0.188642 0.348429 -0.240665 -0.354812 -0.116126 -0.017276 -0.207645 -0.219197 -0.294842 -0.167171 -0.245163 -0.165367 -0.267244 0.486938 -0.159066 -0.306140
0.000003 1.055821 0.000029 0.000000 0.000000 0.000000 -0.094513 0.010852 0.069996 -0.014020 0.037126 -0.082183 0.366589 -0.100016 0.269166 0.094486 -0.010920 -0.070015 -0.289142 -0.042339 -0.124457 -0.338691 0.066627 0.115372 -0.167623 -0.083580 -0.135909 -0.273423 -0.099366 -0.147567 -0.182481 -0.044901 -0.196903 0.318358 0.039537 -0.141847 -0.178567 -0.118507 -0.182863 0.317180 -0.188570 -0.339620 0.011202 0.105043 -0.166294 -0.319189 -0.276961 -0.130675 -0.272929 -0.183219 -0.278010 0.494045 -0.238829 -0.254965
0.000003 1.055824 0.000026 0.000000 0.000000 0.000000 -0.078699 -0.001297 0.083107 -0.026256 0.098045 -0.019437 0.333373 0.034535 0.306362 0.078673 0.001218 -0.083108 -0.435219 -0.144461 -0.089099 -0.524309 0.108813 0.086744 -0.176308 -0.041217 -0.126047 -0.312140 0.003045 -0.149473 -0.322645 -0.010321 -0.205201 0.366015 0.124704 -0.115537 -0.210289 0.011682 -0.191071 0.251817 -0.116242 -0.299178 0.026643 0.175901 -0.158045 -0.362029 -0.215459 -0.102626 -0.375427 -0.167273 -0.260335 0.440130 -0.330512 -0.207960
0.000002 1.055830 0.000067 0.000000 0.000000 0.000000 -0.035775 0.000147 0.082129 0.042846 0.132499 0.078125 0.183549 0.198174 0.311815 0.035751 -0.000242 -0.082202 -0.515896 -0.176249 -0.011335 -0.540036 0.141096 0.108362 -0.148360 -0.000919 -0.131357 -0.276165 0.090354 -0.178326 -0.393459 0.030269 -0.241681 0.386465 0.193205 -0.150756 -0.179732 0.125227 -0.210700 0.163877 -0.090116 -0.233360 -0.048737 0.153722 -0.159655 -0.324011 -0.134232 -0.101973 -0.533284 -0.165585 -0.241472 0.346769 -0.404882 -0.202695
0.000002 1.055838 0.000157 0.000000 0.000000 0.000000 0.028179 0.013712 0.063415 0.157498 0.168622 0.164152 -0.004502 0.338561 0.287677 -0.028197 -0.013825 -0.063665 -0.489782 -0.119977 0.084633 -0.385856 0.173230 0.202604 -0.105407 0.048712 -0.150841 -0.201275 0.178591 -0.212759 -0.370263 0.107658 -0.281935 0.418324 0.276457 -0.208295 -0.139650 0.228848 -0.226273 0.067820 -0.147255 -0.151610 -0.136050 0.054640 -0.140904 -0.217939 -0.039617 -0.120510 -0.669931 -0.197254 -0.231123 0.233814 -0.428689 -0.220702
0.000002 1.055846 0.000241 0.000000 0.000000 0.000000 0.083958 0.025652 0.033488 0.235645 0.229120 0.174823 -0.204217 0.425747 0.221060 -0.083971 -0.025778 -0.033907 -0.395316 -0.011091 0.141642 -0.132593 0.154821 0.334427 -0.077309 0.098813 -0.168022 -0.144181 0.263455 -0.227752 -0.278173 0.211281 -0.301246 0.456605 0.363417 -0.251678 -0.135737 0.311038 -0.228166 -0.021974 -0.302571 -0.078324 -0.235292 -0.088026 -0.106211 -0.112136 0.052851 -0.137563 -0.691269 -0.237442 -0.200436 0.139624 -0.398205 -0.214758
0.000002 1.055847 0.000272 0.000000 0.000000 0.000000 0.116892 0.028657 0.008269 0.229318 0.306524 0.120089 -0.389074 0.433166 0.125166 -0.116905 -0.028780 -0.008750 -0.289454 0.075645 0.138964 0.101022 0.084972 0.391893 -0.080816 0.137217 -0.163232 -0.133467 0.325247 -0.207183 -0.155971 0.279073 -0.266040 0.497648 0.420263 -0.238101 -0.184944 0.356108 -0.208461 -0.048886 -0.507102 -0.055092 -0.350964 -0.252406 -0.094482 -0.048113 0.116596 -0.137486 -0.533285 -0.245235 -0.146931 0.103401 -0.361437 -0.163942
0.000002 1.055842 0.000254 0.000000 0.000000 0.000000 0.130662 0.016244 -0.002290 0.151337 0.357862 0.063502 -0.472519 0.329238 0.070773 -0.130682 -0.016356 0.001845 -0.173999 0.099240 0.105873 0.230199 0.030939 0.330790 -0.098769 0.154672 -0.132179 -0.162181 0.347608 -0.158124 -0.059055 0.269400 -0.187447 0.523710 0.436974 -0.165257 -0.265980 0.352028 -0.174508 0.034202 -0.665334 -0.099330 -0.411959 -0.395463 -0.131969 -0.022752 0.132489 -0.115220 -0.229959 -0.200739 -0.092168 0.117060 -0.352778 -0.094580
0.000003 1.055838 0.000218 0.000000 0.000000 0.000000 0.120853 -0.017775 -0.000010 0.054909 0.358950 0.035662 -0.408031 0.154677 0.086314 -0.120885 0.017671 -0.000369 -0.041375 0.085588 0.068806 0.217956 0.052304 0.217649 -0.115113 0.142327 -0.098401 -0.205090 0.324901 -0.110047 -0.035888 0.201648 -0.115037 0.510346 0.427084 -0.066228 -0.334314 0.308674 -0.143949 0.204357 -0.709109 -0.165293 -0.369551 -0.449983 -0.170814 -0.022423 0.089671 -0.077262 0.086332 -0.148234 -0.053494 0.145559 -0.346972 -0.042573
0.000003 1.055834 0.000184 0.000000 0.000000 0.000000 0.088819 -0.061658 0.004749 -0.008579 0.300643 0.024124 -0.217717 -0.034417 0.134978 -0.088864 0.061565 -0.005070 0.089324 0.026733 0.028945 0.099067 0.099033 0.085802 -0.113537 0.103256 -0.080232 -0.206541 0.267811 -0.080222 -0.062341 0.118751 -0.071734 0.448214 0.399069 0.026381 -0.331867 0.240064 -0.122570 0.413989 -0.653065 -0.217933 -0.232757 -0.411404 -0.197037 -0.006038 0.003318 -0.035873 0.311577 -0.130419 -0.038319 0.164314 -0.307813 -0.005670
0.000003 1.055828 0.000147 0.000000 0.000000 0.000000 0.047417 -0.093677 0.009861 -0.035403 0.181184 -0.006158 0.025182 -0.195711 0.163923 -0.047475 0.093599 -0.010112 0.194862 -0.098503 -0.018588 -0.028789 0.104632 -0.063460 -0.085328 0.046799 -0.078961 -0.152599 0.190325 -0.060731 -0.111713 0.058321 -0.042073 0.339921 0.362843 0.095123 -0.255766 0.143871 -0.111823 0.618489 -0.584011 -0.267077 -0.055563 -0.344444 -0.233177 0.041369 -0.106682 -0.007731 0.392628 -0.142807 -0.055507 0.176967 -0.218284 0.020368
0.000003 1.055826 0.000101 0.000000 0.000000 0.000000 0.012554 -0.093763 0.016500 -0.035790 0.023084 -0.053834 0.227076 -0.317635 0.143304 -0.012619 0.093691 -0.016656 0.227742 -0.256374 -0.069378 -0.086223 0.055366 -0.169716 -0.040153 -0.015574 -0.088908 -0.084115 0.103983 -0.051276 -0.200931 0.053649 -0.019627 0.183273 0.337827 0.131192 -0.159074 0.037695 -0.112364 0.729742 -0.537844 -0.300870 0.125750 -0.282366 -0.264247 0.090807 -0.220677 -0.006079 0.315121 -0.177240 -0.089056 0.174061 -0.083439 0.024143
0.000003 1.055831 0.000066 0.000000 0.000000 0.000000 0.000215 -0.058787 0.016864 -0.026979 -0.108709 -0.065074 0.316302 -0.373819 0.095391 -0.000277 0.058705 -0.016943 0.165544 -0.379232 -0.095390 -0.104894 -0.023513 -0.162157 0.008611 -0.073665 -0.107615 -0.022603 0.022545 -0.056592 -0.314877 0.102509 -0.034648 -0.010606 0.343539 0.096230 -0.074459 -0.044238 -0.119166 0.687343 -0.496226 -0.291824 0.292061 -0.237898 -0.262275 0.133869 -0.313008 -0.024375 0.144568 -0.247685 -0.113127 0.100574 0.031034 -0.015303
0.000002 1.055837 0.000060 0.000000 0.000000 0.000000 0.011967 -0.012583 0.015556 -0.018670 -0.123102 -0.008725 0.278005 -0.338825 0.036897 -0.012018 0.012486 -0.015618 0.043318 -0.400308 -0.065490 -0.138158 -0.073485 -0.047274 0.051458 -0.114095 -0.133998 0.032064 -0.030331 -0.066746 -0.401579 0.168065 -0.089654 -0.189182 0.374334 0.005212 -0.014591 -0.087990 -0.131147 0.513544 -0.442856 -0.247418 0.375676 -0.217377 -0.250299 0.186314 -0.349400 -0.041877 -0.009896 -0.326431 -0.132549 -0.060608 0.070171 -0.085351
0.000003 1.055841 0.000082 0.000000 0.000000 0.000000 0.033628 0.021117 0.025289 -0.034362 -0.029474 0.092317 0.160607 -0.273457 -0.049388 -0.033668 -0.021224 -0.025392 -0.074886 -0.317706 0.000599 -0.187665 -0.096457 0.116497 0.074192 -0.131902 -0.157047 0.058156 -0.046177 -0.065102 -0.456057 0.221580 -0.142340 -0.304390 0.414595 -0.067119 -0.002716 -0.111653 -0.143044 0.272146 -0.399410 -0.205469 0.352989 -0.209706 -0.264673 0.227320 -0.329363 -0.036953 -0.084143 -0.350309 -0.134344 -0.251571 0.047196 -0.113697
